<svg xmlns="http://www.w3.org/2000/svg" viewBox="0 0 131.56 131.56"><defs><style>.cls-1{fill:#222a52;}.cls-2{fill:#f39200;}</style></defs><title>icon</title><g id="Layer_2" data-name="Layer 2"><rect class="cls-1" width="131.56" height="131.56"/></g><g id="Layer_1" data-name="Layer 1"><path class="cls-2" d="M60.21,36.94a23.22,23.22,0,0,1,4.38,1.11,22.9,22.9,0,0,1,5.06,2.58,16.88,16.88,0,0,0,.19-4,18.55,18.55,0,0,0-1.43-5.73c-1.35-3.52-2.61-6.68-3.82-9.65l-5.44,8.31c.26,1.05.51,2.22.7,3.5a34.31,34.31,0,0,1,.36,3.89" transform="translate(1.11 1.52)"/><path class="cls-2" d="M99.32,67.39a1.23,1.23,0,0,0-.79-.61c-1-.24-2-.54-3.08-.93s-2-.77-2.89-1.16a35.58,35.58,0,0,1-12-11,35,35,0,0,0-3.76-6.06,35.38,35.38,0,0,0-4.68-5,14.53,14.53,0,0,1,.76,1.89,13.49,13.49,0,0,1,.38,1.48l-3.7-3.77a19.77,19.77,0,0,0-9.24-3.87,7.45,7.45,0,0,1-.36,2.7,7.26,7.26,0,0,1-1.43,2.48A35.05,35.05,0,0,0,56.17,25a32.48,32.48,0,0,0-3-5.48,23.37,23.37,0,0,1-1.76,3.56c-1.32,2.18-2.31,3-4.68,6.12,0,0-1,1.35-2.24,3.06s-3.34,6.09-3.14,17.36l-1.93-6.24a30.56,30.56,0,0,0-7,8.46A27.38,27.38,0,0,0,32,79q4.83,7.74,9.65,15.48a23.18,23.18,0,0,1-.24-7.66A21.05,21.05,0,0,1,42,84c.34,1.54.68,3.08,1,4.62a20.53,20.53,0,0,0,2,6.32,22,22,0,0,0,5.71,6.91,32.23,32.23,0,0,0,13,6.66c-1.26-2.13-5.06-9.13-3.13-17.51a21.51,21.51,0,0,1,2.7-6.52,9.38,9.38,0,0,0,1.81,6.59,12.71,12.71,0,0,1,3.68-8.64,12.51,12.51,0,0,1,7-3.4,37,37,0,0,0-8.12-1.52,24.84,24.84,0,0,0-8.36.38,20,20,0,0,0-10.07,6.49A10.53,10.53,0,0,1,46,76.45a8.81,8.81,0,0,1-4.25-5.3A9,9,0,0,1,43,63.84a10.29,10.29,0,0,0,.31,5.74,10.08,10.08,0,0,0,2.15,3.51A10.07,10.07,0,0,1,47.2,70a10.43,10.43,0,0,1,2.58-2.25,11.1,11.1,0,0,0-1.87,7,10.76,10.76,0,0,0,1.78,5A23.11,23.11,0,0,1,57,76c3.75-1.14,6.88-1,10.32-.85a47,47,0,0,1,7.9,1l5.93.89a15.32,15.32,0,0,0,6.23-.39,22.68,22.68,0,0,0,4.3-1.93,8.48,8.48,0,0,0,1.61-1.15c.49-.45.73-.79.74-1.18a1.38,1.38,0,0,0,0-.25,4.42,4.42,0,0,1-.65-.4,4.59,4.59,0,0,1-.77-.73,10.24,10.24,0,0,0,2.17,0,6.24,6.24,0,0,0,3-.9,4.84,4.84,0,0,0,1.39-1.44,1.21,1.21,0,0,0,.19-1.28M56.42,43a33.56,33.56,0,0,0-1.05-5c-.18-.63-.4-1.32-.62-1.94s-.64-1.39-1-2c0,.49,0,1,0,1.41,0,.23,0,.49,0,.78a14.88,14.88,0,0,1-.44,3.66A11.23,11.23,0,0,1,52,43L52,43h0l-.15.25a12.15,12.15,0,0,0,.1-1.78l-.06-.4a4.33,4.33,0,0,0-.43-1.52,3.77,3.77,0,0,0-.57-.86l-.09-.08a9.48,9.48,0,0,1-1.11,2.93,8.08,8.08,0,0,1-.78,1.23,8.56,8.56,0,0,1-4,2.87,16.46,16.46,0,0,1-.15-6.33,20.47,20.47,0,0,1,5.12-9.85,19,19,0,0,0,1.74-2c.42-.6.82-1.19,1.19-1.77a17.32,17.32,0,0,1,2.77,4.92,20.42,20.42,0,0,1,1.1,6.21A30.49,30.49,0,0,1,56.42,43Zm19.9,17.56a5.81,5.81,0,0,1-3.57-1.31,10.2,10.2,0,0,0-.86-.69,5.51,5.51,0,0,0-1.21-.69,3.64,3.64,0,0,0-1.85-.21c2.18-2.27,5.35-2.61,7.22-1.19a5.18,5.18,0,0,1,1.77,3.88A5,5,0,0,1,76.32,60.58Z" transform="translate(1.11 1.52)"/></g></svg>