<svg id="Layer_1" data-name="Layer 1" xmlns="http://www.w3.org/2000/svg" viewBox="0 0 100.15 125.82"><defs><style>.cls-1{fill:#f39200;}</style></defs><title>logo</title><path class="cls-1" d="M58.64,25.75A32.4,32.4,0,0,1,72,31a23.64,23.64,0,0,0,.27-5.67,26.2,26.2,0,0,0-2-8.11c-1.92-5-3.69-9.44-5.41-13.64L57.14,15.3a47,47,0,0,1,1,4.95,48.7,48.7,0,0,1,.51,5.5" transform="translate(-13.92 -1.09)"/><path class="cls-1" d="M113.92,68.79a1.75,1.75,0,0,0-1.11-.86c-1.36-.34-2.82-.77-4.36-1.31s-2.85-1.09-4.09-1.65a50.12,50.12,0,0,1-17-15.52A49.4,49.4,0,0,0,75.4,33.87a17.59,17.59,0,0,1,1.08,2.67A19,19,0,0,1,77,38.63L71.79,33.3a27.81,27.81,0,0,0-13.07-5.47,10.09,10.09,0,0,1-2.53,7.32A49.46,49.46,0,0,0,52.93,8.83,46,46,0,0,0,48.7,1.09a34.11,34.11,0,0,1-2.5,5c-1.86,3.07-3.26,4.25-6.62,8.64,0,0-1.46,1.91-3.15,4.33S31.7,27.7,32,43.63l-2.74-8.81a43,43,0,0,0-9.92,12,39.5,39.5,0,0,0-5.4,19.44,38.91,38.91,0,0,0,4.86,19l13.64,21.88a32.67,32.67,0,0,1-.35-10.84,32,32,0,0,1,.82-4c.48,2.18,1,4.35,1.45,6.53a29.37,29.37,0,0,0,2.87,8.94,31,31,0,0,0,8.07,9.76,45.28,45.28,0,0,0,18.4,9.41c-1.78-3-7.15-12.9-4.43-24.74A30.5,30.5,0,0,1,63.08,93a13.35,13.35,0,0,0,.47,5.13,13.57,13.57,0,0,0,2.09,4.19,18,18,0,0,1,5.2-12.22,17.63,17.63,0,0,1,9.93-4.8,52.57,52.57,0,0,0-11.48-2.16,35.1,35.1,0,0,0-11.81.54,28.3,28.3,0,0,0-14.25,9.18,15,15,0,0,1-4.73-11.2,12.18,12.18,0,0,1-4.18-17.83,14.28,14.28,0,0,0,3.47,13.07,14.59,14.59,0,0,1,6.11-7.53,15.55,15.55,0,0,0-2.64,10,15.15,15.15,0,0,0,2.51,7.06A32.44,32.44,0,0,1,54.07,81c5.3-1.62,9.72-1.43,14.58-1.22A67.67,67.67,0,0,1,79.82,81.2l8.38,1.27A21.82,21.82,0,0,0,97,81.91a31.93,31.93,0,0,0,6.07-2.74,10.77,10.77,0,0,0,2.28-1.62c.69-.63,1-1.11,1-1.67a1.68,1.68,0,0,0,0-.35,6.14,6.14,0,0,1-2-1.59,15.32,15.32,0,0,0,3.07,0,8.85,8.85,0,0,0,4.25-1.27,6.77,6.77,0,0,0,2-2,1.68,1.68,0,0,0,.27-1.81M53.29,34.34a46.26,46.26,0,0,0-1.49-7.09c-.26-.89-.57-1.86-.88-2.74a29.27,29.27,0,0,0-1.34-2.79c0,.7,0,1.36,0,2,0,.33,0,.7,0,1.11A21.22,21.22,0,0,1,49,30a15.67,15.67,0,0,1-1.89,4.26.59.59,0,0,1,0,.08h0l-.22.35A16,16,0,0,0,47,32.17c0-.2-.05-.39-.08-.56a6.57,6.57,0,0,0-.6-2.16,5.77,5.77,0,0,0-.82-1.21l-.13-.11a13.18,13.18,0,0,1-1.56,4.13A12.35,12.35,0,0,1,42.65,34,12,12,0,0,1,37,38.06a23.09,23.09,0,0,1-.2-9A28.73,28.73,0,0,1,44,15.2a27.28,27.28,0,0,0,2.45-2.8c.6-.85,1.16-1.68,1.69-2.5a24.79,24.79,0,0,1,3.91,7,28.74,28.74,0,0,1,1.56,8.77A44.31,44.31,0,0,1,53.29,34.34ZM81.41,59.17a8.25,8.25,0,0,1-5-1.86,12.15,12.15,0,0,0-1.21-1,7.79,7.79,0,0,0-1.71-1,5.31,5.31,0,0,0-2.61-.29c3.08-3.22,7.55-3.69,10.21-1.69,2.37,1.8,2.49,5,2.5,5.49A7.58,7.58,0,0,1,81.41,59.17Z" transform="translate(-13.92 -1.09)"/></svg>